<?xml version="1.0" encoding="utf-8"?>
<!-- Generator: Adobe Illustrator 23.1.0, SVG Export Plug-In . SVG Version: 6.00 Build 0)  -->
<svg version="1.1" id="Layer_1" xmlns="http://www.w3.org/2000/svg" xmlns:xlink="http://www.w3.org/1999/xlink" x="0px" y="0px"
	 width="314px" height="123px" viewBox="0 0 314 123" style="enable-background:new 0 0 314 123;" xml:space="preserve">
<style type="text/css">
	.st0{fill:#606060;}
	.st1{fill:#F4A522;}
</style>
<g>
	<g>
		<path class="st0" d="M10.04,71.39v-48.9h20.87c7.34,0,12.71,1.43,16.1,4.28c3.39,2.85,5.09,7.37,5.09,13.56
			c0,5.77-1.53,9.98-4.58,12.64s-7.9,3.99-14.53,3.99h-5.47v14.43H10.04z M27.59,36.08v8.15h2.72c1.66,0,2.93-0.35,3.82-1.05
			c0.88-0.7,1.33-1.7,1.33-2.99c0-1.29-0.45-2.3-1.36-3.02c-0.91-0.72-2.17-1.08-3.78-1.08H27.59z"/>
		<path class="st0" d="M58.14,71.39v-48.9h32.48v13.26H75.26v4.71h13.93v12.53H75.26v5.14h15.76v13.26H58.14z"/>
		<path class="st0" d="M104.35,71.39v-32.9h-9.72v-16h36.89v16h-9.72v32.9H104.35z"/>
	</g>
	<g>
		<path class="st1" d="M159.95,71.39v-48.9h20.87c7.34,0,12.71,1.43,16.1,4.28c3.39,2.85,5.09,7.37,5.09,13.56
			c0,5.77-1.53,9.98-4.58,12.64s-7.9,3.99-14.53,3.99h-5.47v14.43H159.95z M177.5,36.08v8.15h2.72c1.66,0,2.93-0.35,3.82-1.05
			c0.88-0.7,1.33-1.7,1.33-2.99c0-1.29-0.45-2.3-1.36-3.02c-0.91-0.72-2.17-1.08-3.78-1.08H177.5z"/>
		<path class="st1" d="M258.27,47.04c0,3.58-0.63,6.92-1.89,10c-1.26,3.08-3.11,5.84-5.54,8.27c-2.43,2.38-5.24,4.21-8.41,5.48
			c-3.17,1.27-6.55,1.9-10.13,1.9c-3.63,0-7.02-0.63-10.18-1.9c-3.16-1.27-5.97-3.12-8.43-5.54c-2.41-2.36-4.24-5.08-5.47-8.15
			c-1.24-3.07-1.86-6.42-1.86-10.05c0-3.63,0.62-6.99,1.86-10.09s3.06-5.82,5.47-8.18c2.43-2.4,5.23-4.24,8.39-5.49
			s6.57-1.89,10.22-1.89c3.65,0,7.05,0.63,10.22,1.89c3.16,1.26,5.97,3.09,8.43,5.49c2.39,2.38,4.21,5.12,5.46,8.22
			C257.65,40.08,258.27,43.43,258.27,47.04z M232.3,56.26c2.46,0,4.43-0.84,5.92-2.52c1.49-1.68,2.24-3.91,2.24-6.7
			c0-2.81-0.75-5.06-2.24-6.76c-1.49-1.7-3.47-2.56-5.92-2.56c-2.45,0-4.43,0.86-5.94,2.57s-2.26,3.96-2.26,6.75s0.75,5.02,2.26,6.7
			C227.87,55.42,229.85,56.26,232.3,56.26z M242.15,5.49l-10.32,11.72h-5.51l5.97-11.72H242.15z"/>
		<path class="st1" d="M261.19,67.21l5.57-13.69c2.5,1.76,4.73,3.04,6.68,3.86c1.96,0.81,3.79,1.22,5.49,1.22
			c1.19,0,2.13-0.23,2.82-0.68s1.03-1.07,1.03-1.85c0-1.36-1.71-2.39-5.14-3.11c-1.11-0.25-1.97-0.43-2.59-0.57
			c-3.63-0.89-6.4-2.47-8.33-4.74c-1.92-2.27-2.89-5.1-2.89-8.48c0-5.25,1.87-9.53,5.61-12.83c3.74-3.3,8.64-4.94,14.7-4.94
			c2.79,0,5.53,0.37,8.23,1.1c2.7,0.74,5.42,1.85,8.16,3.34l-5.31,12.79c-1.68-1.25-3.37-2.2-5.06-2.86
			c-1.69-0.66-3.33-0.99-4.93-0.99c-1.22,0-2.16,0.21-2.82,0.62c-0.66,0.41-1,0.99-1,1.72c0,1.38,2.42,2.59,7.26,3.64
			c0.77,0.18,1.37,0.31,1.79,0.4c3.34,0.76,5.97,2.3,7.89,4.64c1.92,2.34,2.89,5.17,2.89,8.48c0,5.41-1.94,9.83-5.82,13.26
			c-3.88,3.43-8.93,5.14-15.14,5.14c-3.18,0-6.37-0.46-9.55-1.37S264.38,69.04,261.19,67.21z"/>
	</g>
	<g>
		<path class="st0" d="M8.5,116.34V88.9h14.37v2.98H11.74v7.87h11.13v3.04H11.74v13.55H8.5z"/>
		<path class="st0" d="M55.72,102.68c0,1.96-0.36,3.81-1.08,5.55s-1.77,3.28-3.15,4.63c-1.38,1.35-2.97,2.39-4.76,3.12
			c-1.79,0.73-3.66,1.1-5.58,1.1c-1.93,0-3.78-0.37-5.56-1.1s-3.36-1.77-4.74-3.12c-1.39-1.36-2.45-2.91-3.18-4.65
			s-1.09-3.58-1.09-5.53c0-1.96,0.36-3.82,1.09-5.56s1.79-3.3,3.18-4.66c1.37-1.34,2.94-2.37,4.73-3.09
			c1.79-0.72,3.64-1.09,5.57-1.09c1.94,0,3.8,0.36,5.6,1.09c1.79,0.72,3.38,1.76,4.74,3.09c1.38,1.35,2.43,2.9,3.15,4.64
			C55.36,98.84,55.72,100.7,55.72,102.68z M41.15,114c1.49,0,2.91-0.28,4.26-0.85c1.35-0.57,2.56-1.4,3.64-2.48
			c1.07-1.08,1.88-2.29,2.44-3.66c0.56-1.36,0.84-2.81,0.84-4.33c0-1.54-0.28-3-0.85-4.39c-0.56-1.39-1.38-2.61-2.43-3.67
			c-1.07-1.07-2.28-1.89-3.63-2.46s-2.77-0.84-4.28-0.84c-1.52,0-2.95,0.28-4.3,0.84c-1.35,0.56-2.55,1.38-3.6,2.46
			c-1.07,1.09-1.88,2.32-2.44,3.69c-0.56,1.38-0.84,2.83-0.84,4.37c0,1.52,0.28,2.96,0.83,4.31s1.37,2.58,2.45,3.67
			c1.09,1.1,2.31,1.93,3.64,2.49C38.23,113.72,39.65,114,41.15,114z"/>
		<path class="st0" d="M88.9,102.68c0,1.96-0.36,3.81-1.08,5.55s-1.77,3.28-3.15,4.63c-1.38,1.35-2.97,2.39-4.76,3.12
			c-1.79,0.73-3.66,1.1-5.58,1.1c-1.93,0-3.78-0.37-5.56-1.1s-3.36-1.77-4.74-3.12c-1.39-1.36-2.45-2.91-3.18-4.65
			s-1.09-3.58-1.09-5.53c0-1.96,0.36-3.82,1.09-5.56s1.79-3.3,3.18-4.66c1.37-1.34,2.94-2.37,4.73-3.09
			c1.79-0.72,3.64-1.09,5.57-1.09c1.94,0,3.8,0.36,5.6,1.09c1.79,0.72,3.38,1.76,4.74,3.09c1.38,1.35,2.43,2.9,3.15,4.64
			C88.54,98.84,88.9,100.7,88.9,102.68z M74.33,114c1.49,0,2.91-0.28,4.26-0.85c1.35-0.57,2.56-1.4,3.64-2.48
			c1.07-1.08,1.88-2.29,2.44-3.66c0.56-1.36,0.84-2.81,0.84-4.33c0-1.54-0.28-3-0.85-4.39c-0.56-1.39-1.38-2.61-2.43-3.67
			c-1.07-1.07-2.28-1.89-3.63-2.46s-2.77-0.84-4.28-0.84c-1.52,0-2.95,0.28-4.3,0.84c-1.35,0.56-2.55,1.38-3.6,2.46
			c-1.07,1.09-1.88,2.32-2.44,3.69c-0.56,1.38-0.84,2.83-0.84,4.37c0,1.52,0.28,2.96,0.83,4.31s1.37,2.58,2.45,3.67
			c1.09,1.1,2.31,1.93,3.64,2.49C71.4,113.72,72.82,114,74.33,114z"/>
		<path class="st0" d="M94.18,116.34V88.9h5.23c3.87,0,6.6,0.2,8.18,0.59c1.58,0.39,2.97,1.05,4.16,1.98
			c1.56,1.21,2.75,2.76,3.56,4.65s1.21,4.06,1.21,6.52c0,2.45-0.4,4.62-1.2,6.5c-0.8,1.88-1.99,3.43-3.57,4.64
			c-1.19,0.93-2.55,1.58-4.07,1.98c-1.52,0.39-3.89,0.59-7.1,0.59h-1.17H94.18z M97.46,113.27h2.07c3.35,0,5.67-0.15,6.96-0.44
			s2.36-0.8,3.22-1.51c1.12-0.94,1.97-2.15,2.55-3.63c0.58-1.48,0.88-3.18,0.88-5.09c0-1.92-0.29-3.62-0.87-5.07
			s-1.43-2.66-2.56-3.61c-0.86-0.72-1.95-1.24-3.27-1.55c-1.32-0.31-3.63-0.46-6.92-0.46h-2.07V113.27z"/>
		<path class="st0" d="M150.39,116.34l-2.63-3.19c-1.2,1.22-2.5,2.15-3.87,2.76c-1.38,0.62-2.85,0.93-4.41,0.93
			c-2.41,0-4.36-0.72-5.85-2.16c-1.49-1.44-2.23-3.31-2.23-5.61c0-1.64,0.52-3.15,1.55-4.55c1.04-1.39,2.6-2.7,4.7-3.91l-1.12-1.26
			c-0.6-0.71-1.04-1.44-1.32-2.17c-0.29-0.74-0.43-1.54-0.43-2.4c0-1.7,0.58-3.08,1.74-4.15c1.16-1.07,2.67-1.6,4.52-1.6
			c1.87,0,3.37,0.52,4.5,1.57c1.12,1.05,1.68,2.44,1.68,4.18c0,1.35-0.39,2.57-1.18,3.67c-0.79,1.09-2.05,2.17-3.77,3.21l5.94,7.22
			c0.5-0.55,1.01-1.18,1.54-1.88c0.53-0.71,1.1-1.5,1.69-2.39l1.99,2.19c-0.53,0.81-1.09,1.57-1.67,2.28s-1.18,1.37-1.82,1.98
			l4.36,5.27H150.39z M145.96,110.93l-6.59-8.02l-0.8,0.54c-1.49,1.02-2.52,1.95-3.08,2.77c-0.57,0.83-0.85,1.74-0.85,2.76
			c0,1.45,0.47,2.66,1.42,3.62c0.95,0.96,2.14,1.44,3.57,1.44c1.02,0,2.04-0.25,3.05-0.75S144.79,112,145.96,110.93z M140.51,99.53
			l1.19-0.69c0.84-0.52,1.48-1.12,1.91-1.78c0.43-0.66,0.64-1.39,0.64-2.17c0-0.94-0.29-1.69-0.88-2.26
			c-0.58-0.57-1.36-0.85-2.33-0.85c-0.94,0-1.71,0.3-2.31,0.9c-0.6,0.6-0.89,1.36-0.89,2.29c0,0.46,0.08,0.91,0.25,1.35
			c0.17,0.44,0.41,0.84,0.74,1.22L140.51,99.53z"/>
		<path class="st0" d="M174.6,116.34V92.01h-7.71V88.9h18.66v3.11h-7.67v24.33H174.6z"/>
		<path class="st0" d="M189.16,116.34V88.9h3.24v10.55h14.49V88.9h3.3v27.45h-3.3v-13.78H192.4v13.78H189.16z"/>
		<path class="st0" d="M216.73,116.34V88.9h3.24v27.45H216.73z"/>
		<path class="st0" d="M226.56,116.34V87.81l19.94,21.93V88.9h3.09v28.51l-19.94-21.69v20.62H226.56z"/>
		<path class="st0" d="M271.1,102.17h11.25v0.92c0,4.32-1.22,7.74-3.65,10.24c-2.43,2.5-5.75,3.75-9.96,3.75
			c-1.28,0-2.5-0.14-3.66-0.41c-1.16-0.28-2.23-0.67-3.21-1.2c-2.23-1.24-3.96-2.95-5.18-5.13c-1.22-2.18-1.83-4.66-1.83-7.43
			c0-2.29,0.36-4.35,1.09-6.2c0.73-1.84,1.82-3.47,3.29-4.87c1.23-1.17,2.66-2.06,4.28-2.66c1.63-0.6,3.43-0.9,5.4-0.9
			c2.62,0,4.89,0.48,6.81,1.43c1.92,0.96,3.52,2.4,4.78,4.32l-2.72,2.19c-0.98-1.66-2.2-2.91-3.67-3.74
			c-1.46-0.83-3.17-1.25-5.1-1.25c-3.17,0-5.73,1.08-7.71,3.22s-2.96,4.96-2.96,8.44c0,3.27,1,5.96,3.01,8.06
			c2,2.1,4.56,3.15,7.66,3.15c2.73,0,5-0.83,6.82-2.5c1.82-1.67,2.83-3.84,3.03-6.51h-7.78V102.17z"/>
		<path class="st0" d="M297.07,101.1c1.78,0.76,3.11,1.78,4.01,3.04c0.9,1.26,1.35,2.76,1.35,4.48c0,2.52-0.8,4.56-2.39,6.1
			c-1.59,1.54-3.71,2.32-6.34,2.32c-2.15,0-3.95-0.55-5.4-1.66c-1.45-1.11-2.43-2.68-2.94-4.71l2.94-1.46
			c0.4,1.66,1.05,2.92,1.96,3.78c0.91,0.86,2.06,1.28,3.44,1.28c1.63,0,2.94-0.47,3.95-1.42c1.01-0.94,1.51-2.17,1.51-3.68
			c0-1.22-0.35-2.29-1.05-3.2c-0.7-0.91-1.76-1.67-3.17-2.3l-3.31-1.42c-1.81-0.76-3.16-1.74-4.05-2.94
			c-0.89-1.2-1.33-2.64-1.33-4.31c0-1.95,0.72-3.56,2.16-4.84c1.44-1.27,3.28-1.91,5.51-1.91c1.64,0,3.06,0.35,4.25,1.05
			c1.2,0.7,2.13,1.73,2.8,3.09l-2.68,1.72c-0.61-1.06-1.29-1.85-2.05-2.37c-0.76-0.52-1.61-0.78-2.57-0.78
			c-1.22,0-2.21,0.38-2.99,1.13c-0.78,0.75-1.16,1.71-1.16,2.87c0,0.97,0.3,1.82,0.89,2.53c0.6,0.71,1.52,1.34,2.77,1.89
			L297.07,101.1z"/>
	</g>
</g>
</svg>
