<?xml version="1.0" encoding="utf-8"?>
<!-- Generator: Adobe Illustrator 23.1.0, SVG Export Plug-In . SVG Version: 6.00 Build 0)  -->
<svg version="1.1" id="Layer_1" xmlns="http://www.w3.org/2000/svg" xmlns:xlink="http://www.w3.org/1999/xlink" x="0px" y="0px"
	 width="64px" height="66px" viewBox="0 0 64 66" style="enable-background:new 0 0 64 66;" xml:space="preserve">
<style type="text/css">
	.st0{fill:#F4A522;}
</style>
<g>
	<g>
		<path class="st0" d="M3.52,36.37c0-6.66,0-13.32,0-19.98c0-3.15,2.09-5.29,5.25-5.3c7.52-0.02,15.05-0.01,22.57,0
			c0.21,0,0.44,0,0.64,0.05c0.64,0.16,0.97,0.61,0.92,1.24c-0.04,0.63-0.41,1.07-1.09,1.09c-0.97,0.03-1.94,0.01-2.91,0.01
			c-6.66,0-13.32,0-19.98,0.01c-1.97,0-3,1.02-3,2.97c0,13.35,0,26.7,0,40.05c0,1.71,1.05,2.76,2.77,2.76c13.4,0,26.81,0,40.21,0
			c1.63,0,2.77-1.09,2.77-2.72c0-7.09-0.03-14.18-0.04-21.27c0-1.37,0.01-2.74,0.05-4.11c0.02-0.82,0.54-1.33,1.23-1.3
			c0.71,0.03,1.14,0.53,1.14,1.39c0,8.5,0.01,16.99-0.01,25.49c-0.01,2.8-2.23,4.94-5.1,4.94c-9.68,0.01-19.36,0-29.05,0
			c-3.75,0-7.5,0-11.25,0c-3-0.01-5.13-2.15-5.14-5.15C3.52,49.8,3.52,43.08,3.52,36.37z"/>
		<path class="st0" d="M25.52,30.43c4.29-4.29,8.58-8.58,12.87-12.87c4.22-4.23,8.44-8.46,12.67-12.68c1.56-1.56,3.58-1.55,5.16,0
			c1.36,1.34,2.71,2.7,4.06,4.06c0.71,0.71,1.2,1.52,1.17,2.48c0.02,1.02-0.31,1.82-0.97,2.48C54.98,19.41,49.49,24.9,44,30.39
			c-2.94,2.94-5.95,5.83-8.81,8.86c-1.22,1.29-2.53,2.01-4.28,2.22c-2.16,0.26-4.3,0.69-6.46,1.05c-1.49,0.24-2.05-0.29-1.8-1.77
			c0.44-2.63,0.95-5.24,1.3-7.88 M32.82,38.15c0.2-0.19,0.38-0.35,0.55-0.51c2.28-2.28,4.57-4.55,6.84-6.83
			c4.63-4.63,9.25-9.27,13.89-13.89c0.36-0.36,0.34-0.53-0.01-0.87c-1.67-1.64-3.33-3.29-4.97-4.97c-0.36-0.37-0.53-0.33-0.87,0
			c-6.91,6.95-13.83,13.9-20.76,20.83c-0.33,0.33-0.43,0.52-0.05,0.88c0.9,0.85,1.81,1.69,2.62,2.62c0.74,0.85,1.51,1.66,2.37,2.39
			C32.56,37.91,32.67,38.02,32.82,38.15z M59.03,11.53c0.01-0.29-0.11-0.51-0.32-0.71c-1.45-1.44-2.89-2.89-4.33-4.33
			c-0.49-0.49-1-0.49-1.48-0.02c-0.71,0.69-1.39,1.42-2.11,2.11c-0.29,0.27-0.34,0.44-0.02,0.75c1.73,1.69,3.44,3.4,5.13,5.13
			c0.31,0.31,0.45,0.21,0.69-0.03c0.69-0.71,1.4-1.41,2.11-2.11C58.91,12.09,59.06,11.85,59.03,11.53z M26.06,35.07
			c-0.25,1.47-0.51,2.97-0.77,4.47c-0.04,0.25-0.08,0.41,0.3,0.34c1.52-0.27,3.05-0.51,4.63-0.77
			C28.8,37.72,27.45,36.41,26.06,35.07z"/>
	</g>
</g>
</svg>
