<?xml version="1.0" encoding="utf-8"?>
<!-- Generator: Adobe Illustrator 23.1.0, SVG Export Plug-In . SVG Version: 6.00 Build 0)  -->
<svg version="1.1" id="Layer_1" xmlns="http://www.w3.org/2000/svg" xmlns:xlink="http://www.w3.org/1999/xlink" x="0px" y="0px"
	 width="64px" height="66px" viewBox="0 0 64 66" style="enable-background:new 0 0 64 66;" xml:space="preserve">
<style type="text/css">
	.st0{fill:#FFFFFF;}
</style>
<g>
	<path class="st0" d="M53.92,19.21c-0.89-1.82-2.29-3.08-4.31-3.51c-0.53-0.11-0.74-0.33-0.89-0.84c-0.72-2.54-3.11-4.34-5.84-4.49
		c-2.57-0.14-5.18,1.47-6.2,3.79c-0.42,0.95-0.56,1.93-0.52,2.96c0.06,1.66-0.06,3.28-1.07,4.71c-0.91,1.29-1.86,2.54-2.89,3.74
		c-0.82,0.96-1.68,1.88-2.57,2.78c-0.27,0.27-0.32,0.58-0.15,0.91c0.17,0.33,0.47,0.4,0.81,0.34c0.21-0.04,0.34-0.21,0.48-0.35
		c1.89-1.9,3.62-3.93,5.17-6.11c0.89-1.25,1.54-2.6,1.61-4.16c0.03-0.78,0.02-1.56,0.03-2.34c0.04-3.18,3.36-5.58,6.39-4.63
		c1.92,0.6,3.11,1.89,3.55,3.85c0.16,0.72,0.57,1.06,1.3,1.14c2.74,0.3,4.82,3.19,4.22,6.02c-0.46,2.17-2.47,3.94-4.39,4
		c-1.11,0.03-2.22,0.1-3.32,0.28c-0.29,0.06-0.59,0.1-0.84,0.27c-0.28,0.03-0.52,0.17-0.75,0.31c-0.31,0.07-0.58,0.26-0.84,0.43
		c-1.04,0.66-2.01,1.4-2.97,2.16c-0.32,0.18-0.57,0.44-0.83,0.69c-1.55,1.3-2.97,2.74-4.41,4.16c-2.36,2.32-4.59,4.73-6.52,7.43
		c-0.91,1.28-1.61,2.63-1.69,4.23c-0.04,0.78-0.03,1.56-0.03,2.34c-0.01,2.45-2.09,4.64-4.53,4.85c-2.33,0.2-4.82-1.25-5.41-4
		c-0.16-0.74-0.57-1.08-1.32-1.19c-2.06-0.29-3.4-1.53-4.04-3.45c-0.64-1.9-0.17-3.63,1.18-5.1c1.08-1.18,2.47-1.52,4-1.53
		c1.88-0.01,3.66-0.41,5.24-1.51c1.38-0.96,2.71-1.97,3.96-3.08c0.38-0.33,0.43-0.77,0.15-1.1c-0.27-0.32-0.72-0.31-1.11,0.01
		c-0.74,0.61-1.47,1.24-2.23,1.83c-0.92,0.7-1.85,1.4-2.91,1.88c-1.22,0.55-2.53,0.5-3.81,0.57c-2.71,0.16-4.58,1.51-5.65,3.95
		c-1.62,3.71,0.59,8.01,4.53,8.86c0.44,0.09,0.62,0.26,0.74,0.68c0.97,3.36,4.43,5.3,7.81,4.4c2.61-0.69,5.01-3.19,4.8-6.55
		c-0.1-1.64,0.06-3.24,1.04-4.66c1.11-1.61,2.3-3.16,3.63-4.6c2.48-2.68,5.06-5.26,7.81-7.66c0.26-0.18,0.54-0.33,0.71-0.61
		c0.81-0.57,1.62-1.13,2.43-1.7c0.27-0.13,0.54-0.24,0.75-0.47c0-0.44-0.16-0.81-0.4-1.14c0.25,0.34,0.41,0.71,0.4,1.14
		c0.25-0.11,0.5-0.21,0.75-0.32c0.22-0.02,0.43-0.05,0.63-0.16c0.63-0.05,1.26-0.1,1.88-0.16c1.02-0.09,2.07-0.05,3.03-0.47
		C54.14,26.49,55.5,22.43,53.92,19.21z"/>
	<path class="st0" d="M50.31,24.17c0.4,0.11,0.76-0.11,0.91-0.56c0.17-0.55,0.25-1.13,0.27-1.66c-0.02-1.32-0.42-2.42-1.5-3.18
		c-0.44-0.31-0.87-0.27-1.13,0.11c-0.25,0.36-0.15,0.74,0.28,1.05c0.42,0.32,0.71,0.72,0.83,1.25c0.16,0.7,0.05,1.37-0.13,2.05
		C49.71,23.69,49.92,24.06,50.31,24.17z"/>
	<path class="st0" d="M15.54,41.84c0.13-0.5-0.21-0.94-0.68-0.92c-0.33,0.02-0.56,0.16-0.68,0.48c-0.14,0.39-0.24,0.79-0.28,1.2
		c-0.12,1.48,0.18,2.81,1.47,3.73c0.42,0.3,0.84,0.26,1.1-0.08c0.26-0.35,0.19-0.74-0.24-1.06c-0.73-0.54-0.96-1.28-0.92-2.14
		C15.33,42.64,15.43,42.24,15.54,41.84z"/>
	<path class="st0" d="M27.58,32.03c0.4,0.02,0.73-0.3,0.74-0.7c0.01-0.41-0.3-0.73-0.71-0.73c-0.38-0.01-0.69,0.29-0.71,0.68
		C26.89,31.68,27.18,32.01,27.58,32.03z"/>
</g>
</svg>
