<?xml version="1.0" encoding="utf-8"?>
<!-- Generator: Adobe Illustrator 23.1.0, SVG Export Plug-In . SVG Version: 6.00 Build 0)  -->
<svg version="1.1" id="Layer_1" xmlns="http://www.w3.org/2000/svg" xmlns:xlink="http://www.w3.org/1999/xlink" x="0px" y="0px"
	 width="64px" height="66px" viewBox="0 0 64 66" style="enable-background:new 0 0 64 66;" xml:space="preserve">
<style type="text/css">
	.st0{fill:#FFFFFF;}
</style>
<g>
	<path class="st0" d="M15.19,55.43c0-2.92-0.06-5.84,0.01-8.76c0.05-1.84,0.97-3.38,2.11-4.77c2.07-2.52,4.72-4.23,7.72-5.43
		c0.95-0.38,0.96-0.37,0.15-1.03c-4.32-3.5-4.99-9.9-1.5-14.2c3.54-4.36,9.89-5.04,14.24-1.53c5.02,4.06,5.01,11.73-0.02,15.78
		c-0.16,0.13-0.46,0.22-0.42,0.47c0.05,0.24,0.35,0.24,0.55,0.31c3.41,1.26,6.35,3.17,8.41,6.25c1.04,1.56,1.57,3.26,1.55,5.15
		c-0.03,2.31-0.01,4.61-0.01,6.92c0,0.28,0.03,0.56,0.04,0.83C37.08,55.43,26.14,55.43,15.19,55.43z M31.56,53.51
		c4.58,0,9.16,0,13.74,0c0.72,0,0.76-0.04,0.76-0.76c0-1.66-0.04-3.31,0.01-4.97c0.05-1.72-0.49-3.22-1.49-4.58
		c-1.6-2.18-3.74-3.65-6.18-4.73c-1.47-0.65-3.04-1.01-4.56-1.49c-0.29-0.09-0.77-0.09-0.82-0.35c-0.05-0.29,0.42-0.41,0.66-0.58
		c1.09-0.78,2.29-1.4,3.29-2.31c2.86-2.59,3.61-6.55,1.89-9.87c-1.73-3.35-5.42-5.15-9.09-4.27c-3.39,0.81-5.55,3.01-6.23,6.43
		c-0.68,3.43,0.56,6.22,3.36,8.29c0.99,0.73,2.05,1.35,3.08,2.02c0.12,0.08,0.3,0.12,0.27,0.31c-0.03,0.15-0.2,0.15-0.32,0.19
		c-0.76,0.25-1.52,0.51-2.28,0.75c-3.21,0.97-6.09,2.51-8.38,5c-1.43,1.56-2.35,3.31-2.21,5.53c0.09,1.5,0.02,3.01,0.02,4.52
		c0,0.87,0,0.88,0.86,0.88C22.48,53.51,27.02,53.51,31.56,53.51z"/>
	<path class="st0" d="M55.23,48.96c-1.43,0-2.87-0.01-4.3,0.01c-0.46,0.01-0.62-0.18-0.63-0.62c-0.03-1.27-0.05-1.27,1.21-1.27
		c1.97,0,3.94,0,5.92,0c0.88,0,0.88,0,0.88-0.9c0-1.75-0.05-3.5,0.01-5.25c0.09-2.43-0.84-4.42-2.42-6.17
		c-2.03-2.24-4.56-3.67-7.42-4.55c-0.41-0.12-0.82-0.24-1.23-0.37c-0.13-0.04-0.33-0.05-0.34-0.23c-0.01-0.14,0.15-0.2,0.25-0.27
		c0.85-0.59,1.74-1.13,2.49-1.88c3.56-3.59,3.41-9.46-0.35-12.75c-3.9-3.41-9.66-2.87-12.81,1.2C36,16.53,36,16.53,35.31,16.1
		c-0.92-0.58-0.92-0.58-0.23-1.46c2.67-3.39,7.13-4.84,11.26-3.66c4.15,1.18,7.21,4.74,7.68,9.01c0.35,3.2-0.55,6.03-2.69,8.46
		c-0.51,0.58-0.5,0.6,0.22,0.93c2.8,1.27,5.17,3.07,6.92,5.63c1.15,1.69,1.74,3.56,1.72,5.62c-0.03,2.46-0.01,4.91-0.01,7.37
		c0,0.96,0,0.96-0.94,0.96C57.91,48.96,56.57,48.96,55.23,48.96z"/>
	<path class="st0" d="M8.73,48.96c-1.41,0-2.83-0.02-4.24,0.01c-0.52,0.01-0.67-0.19-0.67-0.69c0.02-2.77-0.03-5.55,0.02-8.32
		c0.04-2.38,1.08-4.38,2.59-6.15c1.65-1.95,3.69-3.39,6.01-4.43c0.75-0.33,0.75-0.35,0.2-0.96c-3.83-4.28-3.63-10.84,0.45-14.8
		c4.13-4.01,10.58-4.05,14.8-0.1c0.5,0.47,0.94,1.01,1.35,1.56c0.23,0.31,0.25,0.51-0.12,0.76c-1.07,0.7-1.06,0.72-1.89-0.25
		c-2.31-2.72-5.97-3.83-9.35-2.68c-3.55,1.21-5.64,3.75-6.05,7.49c-0.37,3.42,1.01,6.12,3.78,8.13c0.36,0.26,0.75,0.49,1.11,0.75
		c0.14,0.1,0.38,0.18,0.34,0.39c-0.03,0.17-0.26,0.17-0.42,0.22c-1.09,0.33-2.18,0.64-3.22,1.1c-2.59,1.17-4.83,2.79-6.42,5.19
		c-0.89,1.33-1.36,2.79-1.33,4.42c0.04,1.93,0.03,3.87,0,5.81c-0.01,0.54,0.19,0.7,0.71,0.7c2.18-0.02,4.35-0.01,6.53-0.01
		c0.72,0,0.75,0.04,0.76,0.76c0.01,1.13,0.01,1.13-1.12,1.13C11.29,48.96,10.01,48.96,8.73,48.96z"/>
</g>
</svg>
