<?xml version="1.0" encoding="utf-8"?>
<!-- Generator: Adobe Illustrator 23.1.0, SVG Export Plug-In . SVG Version: 6.00 Build 0)  -->
<svg version="1.1" id="Layer_1" xmlns="http://www.w3.org/2000/svg" xmlns:xlink="http://www.w3.org/1999/xlink" x="0px" y="0px"
	 width="64px" height="66px" viewBox="0 0 64 66" style="enable-background:new 0 0 64 66;" xml:space="preserve">
<style type="text/css">
	.st0{fill:none;stroke:#FFFFFF;stroke-width:2;stroke-miterlimit:10;}
</style>
<g>
	<path class="st0" d="M5.71,24.02L1.24,39.75c0,0,2.84,16.96,31.61,15.17s29.92-14.43,29.92-14.43l-4.85-17.47"/>
	<path class="st0" d="M10.37,28.62c0,0-1.76-7.09,4.67-8.25c0,0,0.84-9.59,10.54-7.37c0,0,4.53-4.38,12.75-0.32
		c0.04,0.02,0.07,0.02,0.09-0.01c0.35-0.44,0.86-0.74,1.42-0.65c2.9,0.49,8.89,2.17,7.76,7.71c0,0,6.14,0.88,6.44,9.87"/>
	<g>
		<path class="st0" d="M15.04,20.37c0,0,0.14-1.59,0.96-3.33C9.75,18.76,5.71,21.46,5.71,24.5c0,0,5.71,10.44,33.42,8.44
			c0,0,12.67-1.33,15.82-3.88"/>
		<path class="st0" d="M47.52,16.92c0.24,0.8,0.29,1.74,0.07,2.81c0,0,6.14,0.88,6.44,9.87c2.66-1.47,4.2-3.22,4.2-5.1
			C58.23,21.39,54.02,18.63,47.52,16.92z"/>
	</g>
</g>
</svg>
