<?xml version="1.0" encoding="utf-8"?>
<!-- Generator: Adobe Illustrator 23.1.0, SVG Export Plug-In . SVG Version: 6.00 Build 0)  -->
<svg version="1.1" id="Layer_1" xmlns="http://www.w3.org/2000/svg" xmlns:xlink="http://www.w3.org/1999/xlink" x="0px" y="0px"
	 width="64px" height="66px" viewBox="0 0 64 66" style="enable-background:new 0 0 64 66;" xml:space="preserve">
<style type="text/css">
	.st0{fill:#F4A522;}
</style>
<g>
	<g>
		<path class="st0" d="M12.5,38.99c0-7.14,0-14.28,0.01-21.42c0-0.32-0.06-0.42-0.41-0.44c-1.08-0.05-1.99-0.99-2-2.07
			c-0.02-1.82-0.02-3.63,0-5.45c0.02-1.15,1.02-2.03,2.25-2.03c3.93,0,7.87,0,11.8,0c0.48,0,0.48,0,0.48-0.47c0-0.71,0-1.41,0-2.12
			c0-1.36,0.95-2.3,2.32-2.3c3.22,0,6.43,0,9.65,0c1.46,0,2.39,0.93,2.39,2.38c0,0.71,0.01,1.41-0.01,2.12
			c-0.01,0.31,0.09,0.39,0.39,0.39c3.95-0.01,7.89,0,11.84-0.01c1.33-0.01,2.35,1.03,2.31,2.31c-0.04,1.68-0.01,3.35-0.01,5.03
			c0,1.2-0.87,2.15-2.07,2.22c-0.3,0.02-0.35,0.12-0.35,0.39c0.01,6.92,0.01,13.84,0.01,20.76c0,7.28-0.02,14.55,0.01,21.83
			c0.01,1.88-1.43,3.41-3.42,3.41c-10.59,0-21.17,0-31.76,0c-1.97,0-3.42-1.45-3.42-3.41C12.5,53.08,12.5,46.03,12.5,38.99z
			 M14.71,38.75c0,7.07,0,14.14,0,21.21c0,0.94,0.41,1.35,1.35,1.35c3.78,0,7.57,0,11.35,0c6.71,0,13.42,0,20.13,0
			c0.89,0,1.34-0.42,1.34-1.26c0-14.15,0-28.3,0-42.45c0-0.45,0-0.45-0.46-0.45c-11.08,0-22.17,0-33.25,0c-0.46,0-0.46,0-0.46,0.46
			C14.71,24.66,14.71,31.71,14.71,38.75z M31.79,14.93c6.37,0,12.75,0,19.12,0.01c0.31,0,0.41-0.06,0.41-0.4
			c-0.02-1.42-0.01-2.85-0.01-4.27c0-0.47,0-0.47-0.47-0.47c-4.22,0-8.44,0-12.67,0c-8.42,0-16.84,0-25.27,0
			c-0.62,0-0.6-0.15-0.6,0.61c0,1.35,0.01,2.71,0,4.06c0,0.53-0.01,0.46,0.47,0.46C19.11,14.93,25.45,14.93,31.79,14.93z M31.78,7.6
			c1.55,0,3.1-0.01,4.65,0.01c0.28,0,0.36-0.09,0.36-0.36c-0.02-0.67-0.02-1.34,0-2.01c0.01-0.26-0.08-0.34-0.34-0.34
			c-3.1,0.01-6.2,0.01-9.3,0c-0.24,0-0.33,0.07-0.32,0.32c0.01,0.67,0.01,1.34,0,2.01c-0.01,0.29,0.08,0.38,0.38,0.38
			C28.73,7.59,30.25,7.6,31.78,7.6z M12.44,15.05c0,0.01-0.01,0.02-0.01,0.03c12.93,0,25.85,0,38.78,0c0-0.01,0-0.02,0-0.03
			C38.28,15.05,25.36,15.05,12.44,15.05z M15.61,61.44c0,0.01,0,0.02,0,0.02c10.8,0,21.59,0,32.39,0c0-0.01,0-0.02,0-0.02
			C37.21,61.44,26.41,61.44,15.61,61.44z"/>
		<path class="st0" d="M40.41,39.21c0-5.68,0-11.36,0-17.04c0-0.48,0.18-0.84,0.61-1.04c0.4-0.19,0.81-0.15,1.17,0.12
			c0.31,0.23,0.42,0.57,0.43,0.94c0.01,0.28,0,0.56,0,0.83c0,11.01,0,22.02,0,33.04c0,0.81-0.41,1.32-1.08,1.34
			c-0.64,0.02-1.13-0.44-1.13-1.09c0-1.69,0-3.38,0-5.07C40.41,47.23,40.41,43.22,40.41,39.21z"/>
		<path class="st0" d="M32.9,39.2c0,5.67-0.01,11.34,0.01,17.01c0,0.63-0.42,1.08-0.87,1.17c-0.57,0.13-1.09-0.19-1.31-0.77
			c-0.05-0.12-0.05-0.25-0.05-0.38c0-11.35,0-22.7,0-34.06c0-0.67,0.48-1.16,1.12-1.17c0.63,0,1.1,0.49,1.1,1.17
			C32.9,27.86,32.9,33.53,32.9,39.2z"/>
		<path class="st0" d="M23.19,39.2c0,5.69,0,11.38,0,17.08c0,0.56-0.32,0.99-0.82,1.11c-0.52,0.12-1.03-0.13-1.28-0.61
			C21,56.59,21,56.4,21,56.2c0-11.31,0-22.63,0-33.94c0-0.62,0.28-1.06,0.76-1.18c0.55-0.14,1.06,0.06,1.31,0.51
			c0.14,0.26,0.12,0.54,0.12,0.81C23.19,28,23.19,33.6,23.19,39.2C23.19,39.2,23.19,39.2,23.19,39.2z"/>
	</g>
</g>
</svg>
